<?xml version="1.0" encoding="UTF-8" standalone="no"?>
<svg
   width="103.0671"
   height="37.810001"
   viewBox="0 0 103.0671 37.810001"
   fill="none"
   version="1.1"
   id="svg26"
   sodipodi:docname="logo.svg"
   inkscape:version="1.1.2 (0a00cf5339, 2022-02-04)"
   xmlns:inkscape="http://www.inkscape.org/namespaces/inkscape"
   xmlns:sodipodi="http://sodipodi.sourceforge.net/DTD/sodipodi-0.dtd"
   xmlns="http://www.w3.org/2000/svg"
   xmlns:svg="http://www.w3.org/2000/svg">
  <sodipodi:namedview
     id="namedview28"
     pagecolor="#ffffff"
     bordercolor="#666666"
     borderopacity="1.0"
     inkscape:pageshadow="2"
     inkscape:pageopacity="0.0"
     inkscape:pagecheckerboard="0"
     showgrid="false"
     fit-margin-top="5"
     fit-margin-left="5"
     fit-margin-right="5"
     fit-margin-bottom="5"
     inkscape:zoom="10.608108"
     inkscape:cx="62.310828"
     inkscape:cy="15.978344"
     inkscape:window-width="3840"
     inkscape:window-height="2089"
     inkscape:window-x="0"
     inkscape:window-y="34"
     inkscape:window-maximized="1"
     inkscape:current-layer="svg26" />
  <path
     d="m 12.05,26.81 c -1.5,0 -2.87,-0.29 -4.11,-0.87 C 6.7,25.36 5.72,24.54 5,23.48 l 2.22,-1.92 c 0.44,0.82 1.07,1.48 1.89,1.98 0.84,0.48 1.84,0.72 3,0.72 0.92,0 1.65,-0.16 2.19,-0.48 0.54,-0.32 0.81,-0.77 0.81,-1.35 0,-0.38 -0.13,-0.71 -0.39,-0.99 -0.24,-0.3 -0.71,-0.53 -1.41,-0.69 L 10.16,20.09 C 8.56,19.77 7.42,19.26 6.74,18.56 6.06,17.84 5.72,16.93 5.72,15.83 c 0,-0.82 0.24,-1.58 0.72,-2.28 0.48,-0.7 1.18,-1.26 2.1,-1.68 0.94,-0.44 2.06,-0.66 3.36,-0.66 1.5,0 2.78,0.27 3.84,0.81 1.06,0.52 1.87,1.27 2.43,2.25 l -2.22,1.86 c -0.38,-0.8 -0.94,-1.39 -1.68,-1.77 -0.74,-0.4 -1.51,-0.6 -2.31,-0.6 -0.64,0 -1.19,0.08 -1.65,0.24 -0.46,0.16 -0.81,0.38 -1.05,0.66 -0.24,0.28 -0.36,0.61 -0.36,0.99 0,0.4 0.15,0.75 0.45,1.05 0.3,0.3 0.84,0.53 1.62,0.69 l 3.42,0.72 c 1.44,0.28 2.45,0.76 3.03,1.44 0.6,0.66 0.9,1.47 0.9,2.43 0,0.96 -0.25,1.81 -0.75,2.55 -0.5,0.72 -1.22,1.28 -2.16,1.68 -0.94,0.4 -2.06,0.6 -3.36,0.6 z m 16.1489,-9.93 c 0,-1 -0.28,-1.77 -0.84,-2.31 -0.54,-0.56 -1.29,-0.84 -2.25,-0.84 -0.9,0 -1.67,0.21 -2.31,0.63 -0.64,0.42 -1.11,1.1 -1.41,2.04 l -2.7,-1.14 c 0.38,-1.22 1.12,-2.2 2.22,-2.94 1.12,-0.74 2.56,-1.11 4.32,-1.11 1.2,0 2.26,0.2 3.18,0.6 0.92,0.38 1.64,0.96 2.16,1.74 0.54,0.78 0.81,1.78 0.81,3 v 6.69 c 0,0.74 0.37,1.11 1.11,1.11 0.36,0 0.71,-0.05 1.05,-0.15 l -0.18,2.22 c -0.46,0.22 -1.04,0.33 -1.74,0.33 -0.64,0 -1.22,-0.11 -1.74,-0.33 -0.5,-0.24 -0.9,-0.59 -1.2,-1.05 -0.28,-0.48 -0.42,-1.07 -0.42,-1.77 v -0.21 l 0.66,-0.03 c -0.18,0.78 -0.55,1.43 -1.11,1.95 -0.56,0.5 -1.21,0.88 -1.95,1.14 -0.74,0.24 -1.49,0.36 -2.25,0.36 -0.94,0 -1.79,-0.15 -2.55,-0.45 -0.74,-0.3 -1.33,-0.75 -1.77,-1.35 -0.42,-0.62 -0.63,-1.38 -0.63,-2.28 0,-1.12 0.36,-2.04 1.08,-2.76 0.74,-0.72 1.78,-1.21 3.12,-1.47 l 5.82,-1.14 -0.03,2.25 -4.23,0.87 c -0.84,0.16 -1.47,0.39 -1.89,0.69 -0.42,0.3 -0.63,0.74 -0.63,1.32 0,0.56 0.21,1.01 0.63,1.35 0.44,0.32 1.02,0.48 1.74,0.48 0.5,0 0.98,-0.06 1.44,-0.18 0.48,-0.12 0.91,-0.31 1.29,-0.57 0.38,-0.28 0.67,-0.63 0.87,-1.05 0.22,-0.44 0.33,-0.96 0.33,-1.56 z m 5.7393,15.93 v -21.3 h 2.85 l 0.24,4.2 -0.42,-0.51 c 0.24,-0.78 0.61,-1.47 1.11,-2.07 0.5,-0.6 1.12,-1.07 1.86,-1.41 0.76,-0.34 1.59,-0.51 2.49,-0.51 1.22,0 2.33,0.31 3.33,0.93 1,0.62 1.79,1.51 2.37,2.67 0.58,1.14 0.87,2.53 0.87,4.17 0,1.64 -0.3,3.05 -0.9,4.23 -0.58,1.16 -1.38,2.05 -2.4,2.67 -1,0.62 -2.12,0.93 -3.36,0.93 -1.28,0 -2.37,-0.33 -3.27,-0.99 -0.9,-0.68 -1.54,-1.54 -1.92,-2.58 l 0.36,-0.51 v 10.08 z m 7.35,-8.61 c 1.3,0 2.31,-0.46 3.03,-1.38 0.74,-0.92 1.11,-2.19 1.11,-3.81 0,-1.62 -0.36,-2.89 -1.08,-3.81 -0.72,-0.94 -1.72,-1.41 -3,-1.41 -0.84,0 -1.58,0.22 -2.22,0.66 -0.62,0.42 -1.11,1.02 -1.47,1.8 -0.34,0.76 -0.51,1.68 -0.51,2.76 0,1.06 0.17,1.98 0.51,2.76 0.34,0.78 0.82,1.38 1.44,1.8 0.62,0.42 1.35,0.63 2.19,0.63 z M 51.6668,8.99 c -0.7,0 -1.24,-0.17 -1.62,-0.51 -0.36,-0.36 -0.54,-0.86 -0.54,-1.5 0,-0.64 0.18,-1.13 0.54,-1.47 0.38,-0.34 0.92,-0.51 1.62,-0.51 0.68,0 1.2,0.17 1.56,0.51 0.38,0.34 0.57,0.83 0.57,1.47 0,0.64 -0.19,1.14 -0.57,1.5 -0.36,0.34 -0.88,0.51 -1.56,0.51 z m 1.59,2.52 v 15 h -3.21 v -15 z m 8.9225,15.3 c -1.5,0 -2.82,-0.31 -3.96,-0.93 -1.14,-0.62 -2.03,-1.51 -2.67,-2.67 -0.62,-1.18 -0.93,-2.58 -0.93,-4.2 0,-1.62 0.31,-3.01 0.93,-4.17 0.64,-1.18 1.52,-2.08 2.64,-2.7 1.12,-0.62 2.39,-0.93 3.81,-0.93 1.46,0 2.7,0.3 3.72,0.9 1.02,0.6 1.8,1.42 2.34,2.46 0.54,1.04 0.81,2.22 0.81,3.54 0,0.36 -0.01,0.7 -0.03,1.02 -0.02,0.32 -0.05,0.6 -0.09,0.84 h -12.06 v -2.46 h 10.65 l -1.59,0.48 c 0,-1.36 -0.34,-2.4 -1.02,-3.12 -0.68,-0.74 -1.61,-1.11 -2.79,-1.11 -0.86,0 -1.61,0.2 -2.25,0.6 -0.64,0.4 -1.13,1 -1.47,1.8 -0.34,0.78 -0.51,1.74 -0.51,2.88 0,1.12 0.18,2.07 0.54,2.85 0.36,0.78 0.87,1.37 1.53,1.77 0.66,0.4 1.44,0.6 2.34,0.6 1,0 1.81,-0.19 2.43,-0.57 0.62,-0.38 1.11,-0.91 1.47,-1.59 l 2.55,1.2 c -0.36,0.72 -0.85,1.35 -1.47,1.89 -0.6,0.52 -1.32,0.92 -2.16,1.2 -0.84,0.28 -1.76,0.42 -2.76,0.42 z m 8.0437,-0.3 v -15 h 2.85 l 0.21,3.9 -0.42,-0.42 c 0.28,-0.86 0.68,-1.57 1.2,-2.13 0.54,-0.58 1.17,-1 1.89,-1.26 0.74,-0.26 1.52,-0.39 2.34,-0.39 1.06,0 2.01,0.21 2.85,0.63 0.86,0.4 1.54,1.01 2.04,1.83 0.5,0.82 0.75,1.86 0.75,3.12 v 9.72 h -3.21 v -8.73 c 0,-1.48 -0.31,-2.5 -0.93,-3.06 -0.6,-0.58 -1.36,-0.87 -2.28,-0.87 -0.66,0 -1.3,0.16 -1.92,0.48 -0.62,0.3 -1.14,0.79 -1.56,1.47 -0.4,0.68 -0.6,1.59 -0.6,2.73 v 7.98 z m 21.5741,0.3 c -1.5,0 -2.87,-0.29 -4.1099,-0.87 -1.24,-0.58 -2.22,-1.4 -2.94,-2.46 l 2.22,-1.92 c 0.44,0.82 1.07,1.48 1.8899,1.98 0.84,0.48 1.84,0.72 3,0.72 0.92,0 1.65,-0.16 2.19,-0.48 0.54,-0.32 0.81,-0.77 0.81,-1.35 0,-0.38 -0.13,-0.71 -0.39,-0.99 -0.24,-0.3 -0.71,-0.53 -1.41,-0.69 l -3.15,-0.66 c -1.6,-0.32 -2.7399,-0.83 -3.4199,-1.53 -0.68,-0.72 -1.02,-1.63 -1.02,-2.73 0,-0.82 0.24,-1.58 0.72,-2.28 0.48,-0.7 1.18,-1.26 2.1,-1.68 0.9399,-0.44 2.0599,-0.66 3.3599,-0.66 1.5,0 2.78,0.27 3.84,0.81 1.06,0.52 1.87,1.27 2.43,2.25 l -2.22,1.86 c -0.38,-0.8 -0.94,-1.39 -1.68,-1.77 -0.74,-0.4 -1.51,-0.6 -2.31,-0.6 -0.64,0 -1.19,0.08 -1.65,0.24 -0.46,0.16 -0.81,0.38 -1.05,0.66 -0.24,0.28 -0.36,0.61 -0.36,0.99 0,0.4 0.15,0.75 0.45,1.05 0.3,0.3 0.84,0.53 1.62,0.69 l 3.42,0.72 c 1.44,0.28 2.45,0.76 3.03,1.44 0.6,0.66 0.9,1.47 0.9,2.43 0,0.96 -0.25,1.81 -0.75,2.55 -0.5,0.72 -1.22,1.28 -2.16,1.68 -0.94,0.4 -2.06,0.6 -3.36,0.6 z"
     fill="#101828"
     id="path4" />
  <path
     d="m 64.5047,26.5761 c 0.1665,-0.0439 0.3379,-0.0661 0.51,-0.0661 h 30.8884 c 2.333,0 2.778,3.3138 0.528,3.9291 l -3.656,1 c -0.172,0.0471 -0.35,0.0709 -0.528,0.0709 h -31.024 c -2.3433,0 -2.7758,-3.3363 -0.5101,-3.9339 z"
     fill="#101828"
     id="path6" />
  <path
     d="m 67.3146,18.83 v 9.648 c 0,0.4053 0.0746,0.688 0.224,0.848 0.1493,0.1493 0.3893,0.224 0.72,0.224 0.2133,0 0.3893,-0.016 0.528,-0.048 0.1386,-0.032 0.3253,-0.0907 0.56,-0.176 l -0.208,1.12 c -0.1707,0.0747 -0.3574,0.128 -0.56,0.16 -0.2027,0.0427 -0.4107,0.064 -0.624,0.064 -0.6507,0 -1.136,-0.176 -1.456,-0.528 -0.3094,-0.352 -0.464,-0.8907 -0.464,-1.616 V 18.83 Z m 4.3146,2.144 c -0.288,0 -0.5227,-0.0853 -0.704,-0.256 -0.1707,-0.1813 -0.256,-0.416 -0.256,-0.704 0,-0.288 0.0853,-0.5173 0.256,-0.688 0.1813,-0.1813 0.416,-0.272 0.704,-0.272 0.288,0 0.5173,0.0907 0.688,0.272 0.1813,0.1707 0.272,0.4 0.272,0.688 0,0.288 -0.0907,0.5227 -0.272,0.704 -0.1707,0.1707 -0.4,0.256 -0.688,0.256 z m 0.64,1.536 v 8 h -1.28 v -8 z m 2.97,8 v -8 h 1.12 l 0.112,1.792 -0.208,-0.176 c 0.1706,-0.4267 0.4,-0.768 0.688,-1.024 0.288,-0.2667 0.6186,-0.4587 0.992,-0.576 0.384,-0.1173 0.7786,-0.176 1.184,-0.176 0.576,0 1.0986,0.112 1.568,0.336 0.4693,0.2133 0.8426,0.544 1.12,0.992 0.288,0.448 0.432,1.0187 0.432,1.712 v 5.12 h -1.28 v -4.672 c 0,-0.8853 -0.192,-1.4987 -0.576,-1.84 -0.3734,-0.352 -0.8374,-0.528 -1.392,-0.528 -0.384,0 -0.768,0.0907 -1.152,0.272 -0.384,0.1813 -0.704,0.4747 -0.96,0.88 -0.2454,0.4053 -0.368,0.9493 -0.368,1.632 v 4.256 z m 16.9299,-8 -3.456,3.456 -0.304,0.304 -2.6237,2.624 v -1.6 l 4.7677,-4.784 z m -5.7437,-3.68 v 11.68 h -1.28 V 18.83 Z m 2.3997,6.48 3.536,5.2 h -1.552 l -3.0557,-4.48 z"
     fill="#ffffff"
     id="path13" />
  <path
     d="m 79.0175,22.32 h 0.2 v -0.2 h -0.2 z m 0.224,10.496 -0.1463,0.1365 0.0048,0.0049 z m 1.248,0.176 -0.045,-0.1949 z m 0.56,-0.176 0.1966,0.0365 0.0639,-0.3441 -0.3289,0.1196 z m -0.208,1.12 0.0801,0.1832 0.0971,-0.0425 0.0194,-0.1042 z m -0.56,0.16 -0.0313,-0.1978 -0.0099,0.0021 z m -2.08,-0.464 -0.1503,0.132 0.0023,0.0025 z M 77.7375,22.32 v -0.2 h -0.2 v 0.2 z m 1.08,0 v 9.648 h 0.4 V 22.32 Z m 0,9.648 c 0,0.4175 0.0744,0.7666 0.2777,0.9845 l 0.2925,-0.273 C 79.2924,32.5774 79.2175,32.3612 79.2175,31.968 Z M 79.1,32.9574 c 0.2034,0.2034 0.5069,0.2826 0.8615,0.2826 v -0.4 c -0.3068,0 -0.4833,-0.0701 -0.5786,-0.1654 z m 0.8615,0.2826 c 0.2217,0 0.4142,-0.0165 0.5729,-0.0531 l -0.0899,-0.3898 c -0.1186,0.0274 -0.2781,0.0429 -0.483,0.0429 z m 0.5729,-0.0531 c 0.1504,-0.0347 0.3459,-0.0966 0.5834,-0.1829 l -0.1367,-0.376 c -0.2318,0.0843 -0.4096,0.1398 -0.5366,0.1691 z m 0.3184,-0.4074 -0.208,1.12 0.3933,0.073 0.208,-1.12 z m -0.0915,0.9733 c -0.1535,0.0671 -0.3236,0.116 -0.511,0.1456 l 0.0623,0.3952 c 0.2179,-0.0344 0.4212,-0.0922 0.609,-0.1744 z m -0.521,0.1475 C 80.0515,33.94 79.8574,33.96 79.6575,33.96 v 0.4 c 0.2267,0 0.4485,-0.0227 0.6652,-0.0683 z M 79.6575,33.96 c -0.6159,0 -1.0384,-0.1659 -1.3081,-0.4625 l -0.2959,0.269 c 0.3703,0.4074 0.9185,0.5935 1.604,0.5935 z M 78.3517,33.5 C 78.088,33.1999 77.9375,32.7182 77.9375,32.016 h -0.4 c 0,0.7484 0.1587,1.3441 0.5137,1.748 z M 77.9375,32.016 V 22.32 h -0.4 v 9.696 z m -0.2,-9.496 h 1.28 v -0.4 h -1.28 z m 4.8906,1.688 -0.1459,0.1373 0.0088,0.0083 z m 0,-1.392 -0.1414,-0.1414 z m 1.392,0 -0.1459,0.1373 0.0088,0.0083 z m 0,1.392 -0.1414,-0.1414 z M 83.9721,26 h 0.2 v -0.2 h -0.2 z m 0,8 v 0.2 h 0.2 V 34 Z m -1.28,0 h -0.2 v 0.2 h 0.2 z m 0,-8 v -0.2 h -0.2 V 26 Z m 0.64,-1.736 c -0.2456,0 -0.4285,-0.0713 -0.5669,-0.2016 l -0.2742,0.2912 c 0.2242,0.2111 0.5107,0.3104 0.8411,0.3104 z M 82.7737,24.0709 C 82.6434,23.9325 82.5721,23.7496 82.5721,23.504 h -0.4 c 0,0.3304 0.0993,0.6168 0.3103,0.8411 z M 82.5721,23.504 c 0,-0.2459 0.0714,-0.4205 0.1974,-0.5466 l -0.2828,-0.2828 c -0.2153,0.2153 -0.3146,0.4993 -0.3146,0.8294 z m 0.1974,-0.5466 c 0.1391,-0.139 0.3205,-0.2134 0.5626,-0.2134 v -0.4 c -0.3339,0 -0.6218,0.107 -0.8454,0.3306 z m 0.5626,-0.2134 c 0.2423,0 0.4155,0.0743 0.5423,0.2091 l 0.2913,-0.2742 C 83.9512,22.451 83.6658,22.344 83.3321,22.344 Z m 0.5509,0.2176 c 0.1348,0.1269 0.2091,0.3001 0.2091,0.5424 h 0.4 c 0,-0.3337 -0.1071,-0.6192 -0.3349,-0.8336 z m 0.2091,0.5424 c 0,0.2421 -0.0744,0.4235 -0.2134,0.5626 l 0.2828,0.2828 c 0.2236,-0.2236 0.3306,-0.5115 0.3306,-0.8454 z m -0.2134,0.5626 c -0.1261,0.126 -0.3007,0.1974 -0.5466,0.1974 v 0.4 c 0.33,0 0.6141,-0.0993 0.8294,-0.3146 z M 83.7721,26 v 8 h 0.4 v -8 z m 0.2,7.8 h -1.28 v 0.4 h 1.28 z m -1.08,0.2 v -8 h -0.4 v 8 z m -0.2,-7.8 h 1.28 v -0.4 h -1.28 z m 4.25,7.8 h -0.2 v 0.2 h 0.2 z m 0,-8 v -0.2 h -0.2 V 26 Z m 1.12,0 0.1996,-0.0125 L 88.25,25.8 h -0.1879 z m 0.112,1.792 -0.1292,0.1527 0.358,0.3029 -0.0292,-0.4681 z m -0.208,-0.176 -0.1857,-0.0743 -0.0536,0.1339 0.1101,0.0931 z m 0.688,-1.024 0.1329,0.1495 0.003,-0.0027 z m 0.992,-0.576 -0.0585,-0.1913 -0.0015,5e-4 z m 2.752,0.16 -0.0862,0.1805 0.0034,0.0016 z m 1.12,0.992 -0.1701,0.1053 0.0018,0.0029 z M 93.9501,34 v 0.2 h 0.2 V 34 Z m -1.28,0 h -0.2 v 0.2 h 0.2 z m -0.576,-6.512 -0.1373,0.1456 0.0044,0.0039 z m -2.544,-0.256 0.0854,0.1808 z m -0.96,0.88 -0.1691,-0.1068 -0.002,0.0032 z M 88.2221,34 v 0.2 h 0.2 V 34 Z m -1.08,0 v -8 h -0.4 v 8 z m -0.2,-7.8 h 1.12 v -0.4 h -1.12 z m 0.9204,-0.1875 0.112,1.792 0.3992,-0.025 -0.112,-1.792 z m 0.4408,1.6268 -0.208,-0.176 -0.2584,0.3054 0.208,0.176 z m -0.1515,0.051 c 0.1613,-0.4034 0.3744,-0.7171 0.6352,-0.9488 l -0.2658,-0.299 c -0.3153,0.2803 -0.5608,0.6492 -0.7408,1.0992 z M 88.79,26.7388 c 0.2663,-0.2467 0.5711,-0.4236 0.916,-0.532 l -0.1199,-0.3816 c -0.4017,0.1262 -0.7582,0.3333 -1.0679,0.62 z m 0.9145,-0.5315 C 90.0694,26.0958 90.4444,26.04 90.8301,26.04 v -0.4 c -0.425,0 -0.8393,0.0616 -1.2425,0.1847 z M 90.8301,26.04 c 0.5494,0 1.0422,0.1067 1.4818,0.3165 l 0.1723,-0.361 C 91.9852,25.7573 91.4326,25.64 90.8301,25.64 Z m 1.4852,0.3181 c 0.4325,0.1965 0.7758,0.5001 1.0327,0.9152 l 0.3401,-0.2106 c -0.2977,-0.4809 -0.701,-0.8387 -1.2073,-1.0688 z m 1.0345,0.9181 c 0.2619,0.4073 0.4003,0.9374 0.4003,1.6038 h 0.4 c 0,-0.7203 -0.1496,-1.3315 -0.4638,-1.8202 z M 93.7501,28.88 V 34 h 0.4 v -5.12 z m 0.2,4.92 h -1.28 v 0.4 h 1.28 z m -1.08,0.2 v -4.672 h -0.4 V 34 Z m 0,-4.672 c 0,-0.9033 -0.194,-1.5902 -0.6431,-1.9895 l -0.2658,0.299 c 0.3189,0.2834 0.5089,0.8231 0.5089,1.6905 z M 92.2313,27.3425 C 91.8177,26.9525 91.3032,26.76 90.7021,26.76 v 0.4 c 0.5082,0 0.9217,0.1595 1.2548,0.4735 z M 90.7021,26.76 c -0.4166,0 -0.8296,0.0986 -1.2374,0.2911 l 0.1708,0.3617 c 0.3601,-0.17 0.7151,-0.2528 1.0666,-0.2528 z m -1.2374,0.2911 c -0.4227,0.1996 -0.7701,0.5209 -1.0437,0.9541 l 0.3382,0.2136 c 0.2384,-0.3775 0.5309,-0.6429 0.8763,-0.806 z m -1.0457,0.9573 c -0.2708,0.4475 -0.3969,1.0316 -0.3969,1.7356 h 0.4 c 0,-0.6614 0.1192,-1.1652 0.3391,-1.5284 z M 88.0221,29.744 V 34 h 0.4 v -4.256 z m 0.2,4.056 h -1.28 v 0.4 h 1.28 z m 15.6499,-7.8 0.142,0.1414 0.341,-0.3414 h -0.483 z m -3.76,3.76 0.142,0.1414 z m -2.6237,2.624 h -0.2 v 0.4828 l 0.3415,-0.3414 z m 0,-1.6 -0.1416,-0.1412 -0.0584,0.0586 V 30.784 Z M 102.256,26 v -0.2 h -0.083 l -0.058,0.0588 z m -4.1277,-3.68 h 0.2 v -0.2 h -0.2 z m 0,11.68 v 0.2 h 0.2 V 34 Z m -1.28,0 h -0.2 v 0.2 h 0.2 z m 0,-11.68 v -0.2 h -0.2 v 0.2 z m 3.6797,6.48 0.166,-0.1125 -0.112,-0.1644 -0.165,0.1109 z m 3.536,5.2 v 0.2 h 0.378 l -0.212,-0.3125 z m -1.552,0 -0.165,0.1127 0.06,0.0873 h 0.105 z m -3.0557,-4.48 -0.1115,-0.166 -0.1672,0.1123 0.1135,0.1664 z m 4.2747,-3.6614 -3.456,3.456 0.283,0.2828 3.456,-3.456 z m -3.456,3.456 -0.3041,0.304 0.2831,0.2828 0.304,-0.304 z m -0.3041,0.304 -2.624,2.624 0.2829,0.2828 2.6242,-2.624 z m -2.2826,2.7654 v -1.6 h -0.4 v 1.6 z m -0.0583,-1.4588 4.768,-4.784 -0.283,-0.2824 -4.7683,4.784 z M 102.256,26.2 h 1.616 v -0.4 h -1.616 z M 97.9283,22.32 V 34 h 0.4 V 22.32 Z m 0.2,11.48 h -1.28 v 0.4 h 1.28 z m -1.08,0.2 V 22.32 h -0.4 V 34 Z m -0.2,-11.48 h 1.28 v -0.4 h -1.28 z m 3.5147,6.3925 3.536,5.2 0.331,-0.225 -3.536,-5.2 z m 3.701,4.8875 h -1.552 v 0.4 h 1.552 z m -1.386,0.0873 -3.0564,-4.48 -0.3305,0.2254 3.0559,4.48 z m -3.1102,-4.2013 1.0722,-0.72 -0.223,-0.332 -1.0722,0.72 z"
     fill="#000000"
     mask="url(#path-3-outside-1_69_1420)"
     id="path15"
     transform="translate(-11.7029,-3.49)" />
  <path
     d="m 72.6633,20.01 c 0,0.5523 -0.4477,1 -1,1 -0.5523,0 -1,-0.4477 -1,-1 0,-0.5523 0.4477,-1 1,-1 0.5523,0 1,0.4477 1,1 z"
     fill="#7f56d9"
     id="path17" />
  <defs
     id="defs24">
    <clipPath
       id="clip0_69_1420">
      <rect
         width="147"
         height="39"
         fill="#ffffff"
         transform="translate(0.5)"
         id="rect21"
         x="0"
         y="0" />
    </clipPath>
    <mask
       id="path-3-outside-1_69_1420"
       maskUnits="userSpaceOnUse"
       x="77.5"
       y="22"
       width="27"
       height="13"
       fill="#000000">
      <rect
         fill="#ffffff"
         x="77.5"
         y="22"
         width="27"
         height="13"
         id="rect8" />
      <path
         d="m 79.0175,22.32 v 9.648 c 0,0.4053 0.0746,0.688 0.224,0.848 0.1493,0.1493 0.3893,0.224 0.72,0.224 0.2133,0 0.3893,-0.016 0.528,-0.048 0.1386,-0.032 0.3253,-0.0907 0.56,-0.176 l -0.208,1.12 c -0.1707,0.0747 -0.3574,0.128 -0.56,0.16 -0.2027,0.0427 -0.4107,0.064 -0.624,0.064 -0.6507,0 -1.136,-0.176 -1.456,-0.528 -0.3094,-0.352 -0.464,-0.8907 -0.464,-1.616 V 22.32 Z m 4.3146,2.144 c -0.288,0 -0.5227,-0.0853 -0.704,-0.256 -0.1707,-0.1813 -0.256,-0.416 -0.256,-0.704 0,-0.288 0.0853,-0.5173 0.256,-0.688 0.1813,-0.1813 0.416,-0.272 0.704,-0.272 0.288,0 0.5173,0.0907 0.688,0.272 0.1813,0.1707 0.272,0.4 0.272,0.688 0,0.288 -0.0907,0.5227 -0.272,0.704 -0.1707,0.1707 -0.4,0.256 -0.688,0.256 z m 0.64,1.536 v 8 h -1.28 v -8 z m 2.97,8 v -8 h 1.12 l 0.112,1.792 -0.208,-0.176 c 0.1706,-0.4267 0.4,-0.768 0.688,-1.024 0.288,-0.2667 0.6186,-0.4587 0.992,-0.576 0.384,-0.1173 0.7786,-0.176 1.184,-0.176 0.576,0 1.0986,0.112 1.568,0.336 0.4693,0.2133 0.8426,0.544 1.12,0.992 0.288,0.448 0.432,1.0187 0.432,1.712 V 34 h -1.28 v -4.672 c 0,-0.8853 -0.192,-1.4987 -0.576,-1.84 -0.3734,-0.352 -0.8374,-0.528 -1.392,-0.528 -0.384,0 -0.768,0.0907 -1.152,0.272 -0.384,0.1813 -0.704,0.4747 -0.96,0.88 -0.2454,0.4053 -0.368,0.9493 -0.368,1.632 V 34 Z m 16.9299,-8 -3.456,3.456 -0.304,0.304 -2.6237,2.624 v -1.6 L 102.256,26 Z M 98.1283,22.32 V 34 h -1.28 V 22.32 Z m 2.3997,6.48 3.536,5.2 h -1.552 l -3.0557,-4.48 z"
         id="path10" />
    </mask>
  </defs>
</svg>
